<svg xmlns="http://www.w3.org/2000/svg" width="14" height="33" viewBox="0 0 14 33">
    <path fill="#B1BBC2" fill-rule="nonzero" d="M4.932 19.012c0-.456.012-.852.034-1.188.023-.336.072-.658.146-.966a4.82 4.82 0 0 1 .333-.931c.148-.313.347-.67.598-1.068L8.06 11.68c.433-.706.774-1.435 1.025-2.187.25-.752.376-1.447.376-2.085 0-.467-.063-.895-.188-1.282a2.945 2.945 0 0 0-.53-.991 2.366 2.366 0 0 0-.846-.641 2.659 2.659 0 0 0-1.12-.23c-.922 0-1.6.41-2.033 1.23-.433.82-.65 2.005-.65 3.554v1.402H.609a76.058 76.058 0 0 1-.324-1.752 10.252 10.252 0 0 1-.137-1.735c0-.866.131-1.674.393-2.426A5.131 5.131 0 0 1 1.77 2.57c.559-.558 1.265-.997 2.12-1.316C4.744.936 5.764.777 6.949.777c1.173 0 2.201.157 3.084.47.883.313 1.621.76 2.214 1.341a5.454 5.454 0 0 1 1.324 2.094c.29.815.436 1.723.436 2.726 0 .57-.051 1.113-.154 1.632a8.123 8.123 0 0 1-.478 1.555 13.017 13.017 0 0 1-.804 1.59c-.319.54-.7 1.107-1.145 1.7L10.06 15.73c-.33.445-.587.826-.769 1.145a4.128 4.128 0 0 0-.402.94c-.085.308-.14.633-.162.975-.023.341-.034.752-.034 1.23v2.461H4.915l.017-3.47zm-.547 9.963c0-1.196.24-2.054.718-2.572.479-.518 1.128-.778 1.948-.778.855 0 1.516.274 1.983.82.467.548.7 1.39.7 2.53 0 1.037-.236 1.84-.709 2.41-.473.57-1.136.854-1.99.854-.81 0-1.453-.276-1.932-.829-.478-.552-.718-1.364-.718-2.435z"/>
</svg>
