<svg xmlns="http://www.w3.org/2000/svg" width="41" height="23" viewBox="0 0 41 23">
    <g fill="none" fill-rule="evenodd">
        <path fill="#B1BBC2" d="M29.327 14.86c.96 1.537 1.537 3.457 1.537 5.762h9.623c0-4.443-1.111-8.146-2.962-11.108l-8.198 5.346"/>
        <path fill="#B1BBC2" fill-opacity=".85" d="M25.486 11.404c1.537.768 2.881 1.92 3.841 3.456l8.198-5.346c-1.852-2.962-4.443-5.183-7.405-6.664l-4.634 8.554"/>
        <path fill="#B1BBC2" fill-opacity=".7" d="M20.493 10.251c1.729 0 3.457.384 4.993 1.153L30.12 2.85C27.158 1.369 23.826.628 20.493.628v9.623"/>
        <path fill="#7D8D9A" d="M17.442 19.093l-5.629-7.554 7.929 5.089a2.94 2.94 0 1 1-2.3 2.466zm1.982 1.41a1.365 1.365 0 1 0 1.862-1.997 1.365 1.365 0 0 0-1.862 1.996z"/>
        <path fill="#B1BBC2" fill-opacity=".55" d="M15.5 11.404c1.537-.769 3.265-1.153 4.993-1.153V.628c-3.332 0-6.664.74-9.626 2.222l4.633 8.554"/>
        <path fill="#B1BBC2" fill-opacity=".4" d="M11.66 14.86c.96-1.536 2.304-2.688 3.84-3.456L10.867 2.85C7.905 4.33 5.313 6.552 3.462 9.514l8.197 5.346"/>
        <path fill="#B1BBC2" fill-opacity=".25" d="M10.123 20.622c0-2.305.576-4.225 1.536-5.762L3.462 9.514C1.611 12.476.5 16.18.5 20.622h9.623"/>
    </g>
</svg>
