<svg xmlns="http://www.w3.org/2000/svg" width="40" height="23" viewBox="0 0 40 23">
    <g fill="none" fill-rule="evenodd">
        <path fill="#7DC200" d="M28.827 14.232c.96 1.536 1.537 3.457 1.537 5.761h9.623c0-4.443-1.111-8.145-2.962-11.107l-8.198 5.346"/>
        <path fill="#A1CC47" d="M24.986 10.775c1.537.768 2.881 1.92 3.841 3.457l8.198-5.346c-1.852-2.962-4.443-5.184-7.405-6.665l-4.634 8.554"/>
        <path fill="#EDE96F" d="M19.993 9.623c1.729 0 3.457.384 4.993 1.152l4.634-8.554C26.658.741 23.326 0 19.993 0v9.623"/>
        <path fill="#FFBA60" d="M15 10.775c1.537-.768 3.265-1.152 4.993-1.152V0c-3.332 0-6.664.74-9.626 2.221L15 10.775"/>
        <path fill="#FFA21F" d="M11.16 14.232c.96-1.536 2.304-2.689 3.84-3.457l-4.633-8.554C7.405 3.702 4.813 5.924 2.962 8.886l8.197 5.346"/>
        <path fill="#FF4D0E" d="M9.623 19.993c0-2.304.576-4.225 1.536-5.761L2.962 8.886C1.111 11.848 0 15.55 0 19.993h9.623"/>
        <path fill="#424242" d="M17.99 17.368L16.894 8.01l4.322 8.37a2.94 2.94 0 1 1-3.224.986zm1.012 2.21a1.365 1.365 0 1 0 2.611-.798 1.365 1.365 0 0 0-2.61.799z"/>
    </g>
</svg>
