<svg xmlns="http://www.w3.org/2000/svg" width="40" height="22" viewBox="0 0 40 22">
    <g fill="none" fill-rule="evenodd">
        <path fill="#B1BBC2" d="M28.827 14.513c.96 1.536 1.537 3.456 1.537 5.76h9.623c0-4.442-1.111-8.145-2.962-11.107l-8.198 5.347"/>
        <path fill="#B1BBC2" fill-opacity=".85" d="M24.986 11.056c1.537.768 2.881 1.92 3.841 3.457l8.198-5.347c-1.852-2.961-4.443-5.183-7.405-6.664l-4.634 8.554"/>
        <path fill="#B1BBC2" fill-opacity=".7" d="M19.993 9.904c1.729 0 3.457.384 4.993 1.152l4.634-8.554C26.658 1.022 23.326.281 19.993.281v9.623"/>
        <path fill="#7D8D9A" d="M20.9 16.144l7.927-5.088L23.2 18.61a2.94 2.94 0 1 1-2.3-2.466zm-1.545 1.878a1.365 1.365 0 1 0 1.862 1.997 1.365 1.365 0 0 0-1.862-1.997z"/>
        <path fill="#B1BBC2" fill-opacity=".55" d="M15 11.056c1.537-.768 3.265-1.152 4.993-1.152V.28c-3.332 0-6.664.74-9.626 2.221L15 11.056"/>
        <path fill="#B1BBC2" fill-opacity=".4" d="M11.16 14.513c.96-1.537 2.304-2.69 3.84-3.457l-4.633-8.554C7.405 3.983 4.813 6.205 2.962 9.166l8.197 5.347"/>
        <path fill="#B1BBC2" fill-opacity=".25" d="M9.623 20.274c0-2.305.576-4.225 1.536-5.761L2.962 9.166C1.111 12.128 0 15.831 0 20.274h9.623"/>
    </g>
</svg>
