<svg xmlns="http://www.w3.org/2000/svg" width="41" height="23" viewBox="0 0 41 23">
    <g fill="none" fill-rule="evenodd">
        <path fill="#B1BBC2" d="M29.327 14.513c.96 1.536 1.537 3.456 1.537 5.76h9.623c0-4.442-1.111-8.145-2.962-11.107l-8.198 5.347"/>
        <path fill="#B1BBC2" fill-opacity=".85" d="M25.486 11.056c1.537.768 2.881 1.92 3.841 3.457l8.198-5.347c-1.852-2.961-4.443-5.183-7.405-6.664l-4.634 8.554"/>
        <path fill="#B1BBC2" fill-opacity=".7" d="M20.493 9.904c1.729 0 3.457.384 4.993 1.152l4.634-8.554C27.158 1.022 23.826.281 20.493.281v9.623"/>
        <path fill="#7D8D9A" d="M22.65 17.743l9.419.215-8.89 3.115a2.94 2.94 0 1 1-.527-3.33zm-2.33.694a1.365 1.365 0 1 0 .428 2.696 1.365 1.365 0 0 0-.427-2.696z"/>
        <path fill="#B1BBC2" fill-opacity=".55" d="M15.5 11.056c1.537-.768 3.265-1.152 4.993-1.152V.28c-3.332 0-6.664.74-9.626 2.221l4.633 8.554"/>
        <path fill="#B1BBC2" fill-opacity=".4" d="M11.66 14.513c.96-1.537 2.304-2.69 3.84-3.457l-4.633-8.554C7.905 3.983 5.313 6.205 3.462 9.166l8.197 5.347"/>
        <path fill="#B1BBC2" fill-opacity=".25" d="M10.123 20.274c0-2.305.576-4.225 1.536-5.761L3.462 9.166C1.611 12.128.5 15.831.5 20.274h9.623"/>
    </g>
</svg>
