<svg xmlns="http://www.w3.org/2000/svg" width="33" height="33" viewBox="0 0 33 33">
    <g fill="#D3D8DC" fill-rule="nonzero">
        <path d="M10.973 32.313v-5.386a.66.66 0 0 0-1.32 0v5.386a.66.66 0 0 0 1.32 0zM19.223 32.313v-5.386a.66.66 0 0 0-1.32 0v5.386a.66.66 0 0 0 1.32 0z"/>
        <path d="M7.563 27.473h13.75a.66.66 0 0 0 0-1.32H7.563a.66.66 0 0 0 0 1.32z"/>
        <path d="M1.347 32.313V8.936c0-.394.32-.714.716-.714h11c.394 0 .714.32.714.714v23.376a.66.66 0 0 0 1.32 0V8.936a2.035 2.035 0 0 0-2.034-2.034h-11A2.035 2.035 0 0 0 .026 8.938v23.374a.66.66 0 0 0 1.32 0z"/>
        <path d="M10.973 4.125c0-.744-.604-1.348-1.348-1.348H5.5c-.744 0-1.348.604-1.348 1.348v3.438c0 .364.296.66.66.66h5.5a.66.66 0 0 0 .66-.66V4.124zm-5.5 2.777V4.125c0-.015.012-.027.027-.027h4.125c.015 0 .027.012.027.027v2.777h-4.18z"/>
        <path d="M8.223 3.438V.688a.66.66 0 0 0-1.32 0v2.75a.66.66 0 0 0 1.32 0zM3.438 12.348h8.25a.66.66 0 0 0 0-1.32h-8.25a.66.66 0 0 0 0 1.32zM3.438 17.848h8.25a.66.66 0 0 0 0-1.32h-8.25a.66.66 0 0 0 0 1.32zM3.438 23.348h8.25a.66.66 0 0 0 0-1.32h-8.25a.66.66 0 0 0 0 1.32zM.688 32.972h30.25a.66.66 0 0 0 0-1.32H.688a.66.66 0 0 0 0 1.32z"/>
        <path d="M24.776 17.876V31.74a.66.66 0 0 0 1.32 0V17.877a.66.66 0 0 0-1.32 0z"/>
        <path d="M21.34 22.716a4.257 4.257 0 0 0 4.069 4.068.66.66 0 1 0 .057-1.318 2.937 2.937 0 0 1-2.807-2.807.66.66 0 1 0-1.318.057zM25.434 22.66a5.578 5.578 0 0 0 3.899-1.56.66.66 0 0 0-.916-.95 4.258 4.258 0 0 1-2.976 1.19.66.66 0 0 0-.007 1.32z"/>
        <path d="M29.535 17.188c0-3.54-2.076-6.16-4.785-6.16-3.085 0-4.785 2.364-4.785 6.16.049.648.16 1.27.332 1.868a3.139 3.139 0 0 0-3.082 3.188c-.004.82.316 1.622.892 2.225a.66.66 0 0 0 .955-.912 1.9 1.9 0 0 1-.527-1.322 1.818 1.818 0 0 1 1.775-1.859c.239.002.493.063.723.18.554.282 1.155-.29.901-.858a7.728 7.728 0 0 1-.651-2.561c.002-3.092 1.222-4.79 3.467-4.79 1.904 0 3.465 1.971 3.465 4.84 0 .064 0 .12.003.239l.002.104a3.84 3.84 0 0 1-.003.3.66.66 0 0 0 .743.7c.172-.023.346-.023.518 0 .668-.02 1.206.19 1.598.581.392.392.602.93.577 1.485.025.612-.185 1.15-.577 1.543-.392.392-.93.601-1.484.577a.66.66 0 1 0-.059 1.318 3.296 3.296 0 0 0 3.439-3.438c.04-.866-.308-1.764-.962-2.418a3.296 3.296 0 0 0-2.475-.962v-.029z"/>
    </g>
</svg>
