<svg xmlns="http://www.w3.org/2000/svg" width="38" height="30" viewBox="0 0 38 30">
    <g fill="#B1BBC2" fill-rule="nonzero">
        <path d="M29.312 20.222c-.255 5.603-4.992 9.945-10.528 9.712-5.604.233-10.34-4.11-10.596-9.749 0-4.364 2.345-7.93 6.275-10.82l-2.156-4.322a2.437 2.437 0 0 1 3.389-3.214c.23.132.523.072.683-.142l.338-.449a2.548 2.548 0 0 1 4.079 0l.338.45c.16.213.454.274.685.141a2.438 2.438 0 0 1 3.389 3.211l-2.17 4.325c3.93 2.89 6.274 6.458 6.274 10.857zM21.274 9.258l2.482-4.948a.813.813 0 0 0-1.13-1.07c-.943.54-2.14.292-2.792-.577l-.339-.451a.923.923 0 0 0-1.478.001l-.338.45a2.152 2.152 0 0 1-2.792.576.812.812 0 0 0-1.128 1.074l2.468 4.947c.18.361.068.8-.264 1.03-3.88 2.687-6.15 5.947-6.151 9.858.214 4.709 4.195 8.358 8.972 8.163 4.71.195 8.69-3.454 8.904-8.126 0-3.948-2.271-7.208-6.15-9.894a.812.812 0 0 1-.264-1.033z"/>
        <path d="M12.257 10.435h13a.812.812 0 1 0 0-1.625h-13a.812.812 0 1 0 0 1.625zM7.269 10.846l-2.004-3.52a.325.325 0 0 1 .346-.48 9.037 9.037 0 0 0 3.549 0 .325.325 0 0 1 .345.48l-2.022 3.517a.809.809 0 0 0-.108.39.81.81 0 0 0-.106-.387zm.514 1.106a.812.812 0 0 0 1.109-.3l2.023-3.52a1.951 1.951 0 0 0-2.074-2.88 7.414 7.414 0 0 1-2.912 0A1.95 1.95 0 0 0 3.853 8.13l1.626 2.857A12.75 12.75 0 0 0 .063 20.97c0 4.067 3.273 7.341 7.312 7.341a.812.812 0 1 0 0-1.625 5.688 5.688 0 0 1-5.688-5.687 11.114 11.114 0 0 1 5.3-9.058.812.812 0 0 0 .388-.679c.005.276.15.543.408.691z"/>
        <path d="M4.131 12.06h4.063a.812.812 0 1 0 0-1.625H4.131a.812.812 0 1 0 0 1.625zM33.655 8.131a1.951 1.951 0 0 0-2.055-2.88 7.427 7.427 0 0 1-2.916.001 1.95 1.95 0 0 0-2.076 2.878l1.998 3.519a.813.813 0 0 0 1.519-.388.812.812 0 0 0 .388.68 11.125 11.125 0 0 1 5.3 9.086c0 3.112-2.547 5.658-5.688 5.658a.812.812 0 1 0 0 1.625 7.313 7.313 0 0 0 7.313-7.312 12.765 12.765 0 0 0-5.416-10.01l1.633-2.857zm-3.636 2.715l-1.999-3.52a.325.325 0 0 1 .346-.48 9.038 9.038 0 0 0 3.543 0 .325.325 0 0 1 .333.481l-2.01 3.517a.81.81 0 0 0-.107.388.809.809 0 0 0-.106-.386z"/>
        <path d="M33.382 10.435h-4.063a.812.812 0 1 0 0 1.625h4.063a.812.812 0 1 0 0-1.625zM17.944 22.624v1.625a.812.812 0 1 0 1.625 0v-1.625a.812.812 0 1 0-1.625 0zM17.944 14.5v1.624a.812.812 0 1 0 1.625 0V14.5a.812.812 0 1 0-1.625 0z"/>
        <path d="M15.5 23.437h4.875a2.437 2.437 0 1 0 0-4.875h-3.25a.812.812 0 1 1 0-1.625H22a.812.812 0 1 0 0-1.625h-4.875a2.437 2.437 0 1 0 0 4.875h3.25a.812.812 0 1 1 0 1.625H15.5a.812.812 0 1 0 0 1.625z"/>
    </g>
</svg>
