<svg xmlns="http://www.w3.org/2000/svg" width="30" height="30" viewBox="0 0 30 30">
    <g fill="#B1BBC2" fill-rule="nonzero">
        <path d="M22.338 2.361c-1.132 1.132-3.232.867-5.031-.933a.622.622 0 0 0-.88 0L14.56 3.293a.622.622 0 0 0 0 .88l9.956 9.956a.622.622 0 0 0 .88 0l4.355-4.356a.622.622 0 0 0 0-.88l-6.533-6.532a.622.622 0 0 0-.88 0zm6.093 6.972l-3.475 3.476-9.076-9.076 1.003-1.002c1.957 1.681 4.275 2.016 5.856.912l5.692 5.69zM10.935 7.502A5.6 5.6 0 0 0 3.362.497a.622.622 0 0 0-.184 1.007l2.489 2.487V5.6h-1.61L1.57 3.113a.622.622 0 0 0-1.007.184 5.6 5.6 0 0 0 7.004 7.574l4.43 4.428a.622.622 0 1 0 .88-.88l-4.721-4.72a.622.622 0 0 0-.696-.126 4.356 4.356 0 0 1-6.056-4.867L3.36 6.662a.622.622 0 0 0 .44.182h2.489a.622.622 0 0 0 .622-.622V3.733a.622.622 0 0 0-.182-.44L4.772 1.337a4.356 4.356 0 0 1 4.865 6.058.622.622 0 0 0 .127.696l4.72 4.719a.622.622 0 1 0 .88-.88l-4.429-4.428zM20.372 28.23a5.6 5.6 0 0 0 6.266 1.143c.396-.179.491-.699.184-1.006l-2.489-2.491v-1.61h1.61l2.487 2.49a.622.622 0 0 0 1.008-.183 5.6 5.6 0 0 0-7.004-7.575l-4.43-4.429a.622.622 0 0 0-.88.88l4.721 4.72c.183.183.46.234.696.127a4.356 4.356 0 0 1 6.056 4.867l-1.957-1.958a.622.622 0 0 0-.44-.183h-2.489a.622.622 0 0 0-.622.622v2.49c0 .164.065.322.182.44l1.958 1.959a4.356 4.356 0 0 1-4.866-6.057.622.622 0 0 0-.127-.696l-4.72-4.72a.622.622 0 1 0-.88.88l4.429 4.428a5.6 5.6 0 0 0 1.307 5.862z"/>
        <path d="M18.84 7.574L.795 25.62a2.49 2.49 0 0 0 3.52 3.52L22.36 11.095a.622.622 0 1 0-.88-.88L3.436 28.259a1.245 1.245 0 0 1-1.76-1.76L19.72 8.454a.622.622 0 1 0-.88-.88z"/>
    </g>
</svg>
