<svg xmlns="http://www.w3.org/2000/svg" width="24" height="34" viewBox="0 0 24 34">
    <g fill="#B1BBC2" fill-rule="nonzero">
        <path d="M15.518 13.597h-7.52c-.31 0-.614.101-.862.288C3.413 16.726.25 21.507.25 25.093c0 5.855 3.552 8.625 11.5 8.625s11.5-2.77 11.5-8.625c0-3.589-3.155-8.372-6.865-11.204a1.442 1.442 0 0 0-.867-.292zm6.294 11.496c0 4.972-2.84 7.188-10.062 7.188-7.221 0-10.063-2.216-10.063-7.188 0-3.058 2.92-7.47 6.316-10.062l7.515.004c3.383 2.584 6.294 6.997 6.294 10.058zM6.724 12.156h10.063a.719.719 0 1 0 0-1.438H6.724a.719.719 0 1 0 0 1.438zM13.089 1.333a1.437 1.437 0 0 0-2.67.001l-.5 1.246-2.342-1.004A1.436 1.436 0 0 0 5.749 3.59a14.221 14.221 0 0 1 1.667 4.476c.083.679.7 1.22 1.43 1.215h5.838a1.436 1.436 0 0 0 1.432-1.26c.283-1.53.837-3.04 1.632-4.425l.006-.01a1.438 1.438 0 0 0-1.831-2.013l-2.338 1.002-.496-1.242zm1.607 6.469l-.007.041H8.841A15.808 15.808 0 0 0 7 2.883l.007.013 3.021 1.295c.371.16.8-.018.95-.393l.774-1.93.77 1.925c.15.375.58.553.95.394l3.02-1.294.002-.001a15.542 15.542 0 0 0-1.8 4.91z"/>
        <path d="M13.193 19.343v-1.437a.719.719 0 1 0-1.437 0v1.437a.719.719 0 1 0 1.437 0z"/>
        <path d="M14.625 18.624h-2.917a2.646 2.646 0 0 0-.984 5.106l2.964 1.186a1.21 1.21 0 0 1-.452 2.333h-2.924a.719.719 0 1 0 0 1.438h2.924a2.648 2.648 0 0 0 .987-5.105l-2.966-1.187a1.21 1.21 0 0 1 .449-2.333h2.919a.719.719 0 1 0 0-1.438z"/>
        <path d="M13.193 29.406v-1.438a.719.719 0 1 0-1.437 0v1.438a.719.719 0 1 0 1.437 0z"/>
    </g>
</svg>
