<svg xmlns="http://www.w3.org/2000/svg" width="390" height="150" viewBox="0 0 390 150">
    <g fill="none" fill-rule="evenodd">
        <path fill="#FFF" d="M315.524 31.839v55.328h-10.373v39.37h2.128v21.29H100.165v-21.29h2.129V65.503l-12.13 9.139a1.148 1.148 0 0 1-1.604-.224l-2.755-3.657a1.148 1.148 0 0 1 .224-1.605l76.2-57.421 26.681 20.105h19.772v-6.645h1.812V12.238h-1.812V6.964h1.812V1.69h11.672v5.274h1.812v5.274h-1.812v12.956h1.812v6.645h91.546"/>
        <path fill="#ECEEEF" d="M210.242 46.85a1.414 1.414 0 0 1-2.827 0v-7.115a1.413 1.413 0 1 1 2.827 0v7.115M196.904 36.798a1.413 1.413 0 1 1-2.826 0v-4.96a1.414 1.414 0 0 1 2.826 0v4.96M303.6 74.833a1.413 1.413 0 1 1-2.826 0V31.84a1.414 1.414 0 0 1 2.826 0v42.994M290.263 74.833a1.413 1.413 0 1 1-2.826 0V31.84a1.414 1.414 0 0 1 2.826 0v42.994M276.927 74.833a1.413 1.413 0 1 1-2.828 0V31.84a1.415 1.415 0 0 1 2.828 0v42.994M263.59 74.833a1.413 1.413 0 1 1-2.827 0V31.84a1.414 1.414 0 0 1 2.826 0v42.994M250.252 74.833a1.413 1.413 0 1 1-2.826 0V31.84a1.414 1.414 0 0 1 2.826 0v42.994M236.916 66.95a1.414 1.414 0 0 1-2.828 0V31.839a1.414 1.414 0 0 1 2.828 0v35.11M223.579 56.9a1.414 1.414 0 0 1-2.828 0V39.735a1.414 1.414 0 0 1 2.828 0V56.9"/>
        <path fill="#E0E3E5" d="M164.255 39.279c5.667 0 10.258 4.593 10.258 10.258 0 5.667-4.591 10.258-10.258 10.258-5.666 0-10.257-4.591-10.257-10.258 0-5.665 4.591-10.258 10.257-10.258zM305.15 87.167v7.073h-55.905l4.829 11.197-4.134 5.485h-6.224v36.905h-19.424v-21.29h-2.127V71.215L202.37 56.298l-27.097 20.417V110.4l-16.937-40.235 3.892 5.167 36.491-27.498 23.446 17.593 12.13 9.216 4.133-5.487 4.805 11.142h72.29v6.87h-10.373zM133.677 142.63h14.172v-5.384h-14.172v5.384zm56.39 5.197h-9.178v-21.29l9.178 21.29zm-7.05-21.29h7.647V98.896c2.533-1.814 5.157-3.166 7.88-4.02v23.796h4.311V93.95c3.673-.431 7.522 0 11.568 1.367V75.331c-11.936-7.061-22.264-6.551-31.406 0v51.207zm-57.61-7.866h30.711V81.658h-30.71v37.013zm-23.113-53.17l59.935-45.165 31.116 23.449-3.856 2.905-23.676-17.84-6.712 5.059a11.297 11.297 0 0 0-6.418 4.836l-50.39 37.97V65.502z"/>
        <path fill="#425563" d="M163.102 10.625c.093.075.179.16.254.26l-.254-.26zm36.491 27.498c.093.074.179.16.253.259l-.253-.26zm-98.015 109.704a1.414 1.414 0 0 1-2.826 0v-21.29c0-.78.633-1.413 1.413-1.413h.716V68.333l-9.867 7.435a2.546 2.546 0 0 1-1.892.488 2.547 2.547 0 0 1-1.688-.99l-2.757-3.657a2.546 2.546 0 0 1-.488-1.891c.09-.651.43-1.265.99-1.688l76.2-57.422a1.412 1.412 0 0 1 1.723.017l26.277 19.8h17.89v-5.23c0-.782.633-1.414 1.413-1.414h.4v-10.13h-.4c-.78 0-1.414-.633-1.414-1.415V6.964c0-.78.634-1.413 1.414-1.413h.4V1.69c0-.78.632-1.414 1.412-1.414h11.672c.78 0 1.413.633 1.413 1.413v3.86h.4c.78 0 1.413.634 1.413 1.414v5.272c0 .782-.634 1.415-1.414 1.415h-.4v10.13h.4c.78 0 1.414.632 1.414 1.413v5.231h90.132c.78 0 1.413.634 1.413 1.414v55.328c0 .78-.633 1.413-1.413 1.413h-8.96v36.544h.715c.78 0 1.413.634 1.413 1.414v21.289a1.414 1.414 0 0 1-2.826 0V127.95h-12.348v19.876a1.414 1.414 0 0 1-2.826 0v-15.144h-54.068v15.144a1.414 1.414 0 0 1-2.828 0V127.95h-8.089v19.876a1.414 1.414 0 0 1-2.828 0V127.95h-4.913v19.876a1.414 1.414 0 0 1-2.828 0v-3.782h-32.836v3.782a1.414 1.414 0 0 1-2.828 0V127.95h-4.915v19.876a1.414 1.414 0 0 1-2.826 0V127.95h-70.155v19.876zm91.55-114.575l6.434 4.847.007.006.024.018L239.28 68.03c.56.423.898 1.037.99 1.688a2.536 2.536 0 0 1-.488 1.886l-.003.004.003.003-2.755 3.655c-.425.562-1.04.9-1.69.992a2.545 2.545 0 0 1-1.891-.49l-9.867-7.435v10.55h90.53V33.252h-88.717v6.483c0 .78-.634 1.413-1.414 1.413h-15.296c-.78 0-1.414-.633-1.414-1.413v-6.483h-14.14zm-5.007-.24a1.697 1.697 0 0 1-.12-.09l-25.772-19.42-75.137 56.621 2.434 3.23 11.86-8.934c.04-.034.077-.062.118-.09l59.853-45.101a1.412 1.412 0 0 1 1.723-.018l29.932 22.555 3.363-2.532-8.254-6.221zm23.786-9.23h8.844V13.65h-8.844v10.13zm-1.812 14.54h12.47V26.608h-12.47v11.714zm1.812-32.771h8.844V3.103h-8.844v2.448zm-1.812 5.272h12.47V8.377h-12.47v2.446zm93.642 77.757H223.58v36.544h10.217v-26.97c0-.78.633-1.413 1.413-1.413h56.896c.78 0 1.413.633 1.413 1.413v26.97h10.22V88.58zm-80.158-2.828h90.532V81.71H223.58v4.042zm13.045 44.105h54.068v-13.731h-54.068v13.73zm0-16.559h54.068v-13.73h-54.068v13.73zm-40.626 3.96h5.443V88.58h-5.443v28.678zm6.857 2.826h-8.27c-.78 0-1.413-.633-1.413-1.413V87.167c0-.782.633-1.415 1.413-1.415h8.27c.78 0 1.413.633 1.413 1.415v31.504c0 .78-.633 1.413-1.413 1.413zm-15.31 5.04V80.297c0-.78.634-1.414 1.416-1.414h19.518c.78 0 1.414.634 1.414 1.414v44.827h3.116V76.91a21.974 21.974 0 0 0-6.38-3.798 22.026 22.026 0 0 0-7.909-1.462c-2.738 0-5.417.504-7.909 1.462a21.974 21.974 0 0 0-6.38 3.798v48.214h3.115zm2.829 0h16.692V81.71h-16.692v43.414zm24.936-49.951c.32.259.526.655.526 1.1v48.851h4.915V66.203L198.72 49.6l-22.031 16.603v58.921h4.915v-48.85c0-.446.205-.842.526-1.101a24.848 24.848 0 0 1 7.675-4.69 24.863 24.863 0 0 1 8.915-1.66c3.063 0 6.082.572 8.915 1.66a24.83 24.83 0 0 1 7.675 4.69zm7.337-11.075c.267.096.498.272.662.499l11.624 8.758 2.435-3.232L198.72 41l-4.841 3.647-.032.024-33.775 25.452 2.435 3.232 11.856-8.933c.041-.035.082-.067.126-.095l23.358-17.602a1.412 1.412 0 0 1 1.722-.017l23.078 17.39zm-48.786 4.235l-9.867 7.435a2.547 2.547 0 0 1-1.891.49 2.55 2.55 0 0 1-1.688-.992l-2.756-3.655a2.542 2.542 0 0 1-.489-1.892 2.55 2.55 0 0 1 .99-1.69l32.509-24.497-28.44-21.43-58.522 44.1v58.922h70.154V68.333zm-11.689-35.3c3.223 0 6.14 1.308 8.253 3.42a11.637 11.637 0 0 1 3.419 8.252c0 3.225-1.306 6.143-3.419 8.255a11.641 11.641 0 0 1-8.253 3.419c-3.223 0-6.14-1.308-8.253-3.419a11.642 11.642 0 0 1-3.418-8.255c0-3.22 1.307-6.14 3.418-8.253a11.641 11.641 0 0 1 8.253-3.418zm6.254 5.418a8.821 8.821 0 0 0-6.254-2.59c-2.443 0-4.655.99-6.254 2.59a8.819 8.819 0 0 0-2.591 6.254 8.82 8.82 0 0 0 2.59 6.256 8.818 8.818 0 0 0 6.255 2.59c2.443 0 4.653-.99 6.254-2.59a8.82 8.82 0 0 0 2.591-6.256c0-2.44-.99-4.653-2.59-6.254zM121.45 74.86h34.67c.781 0 1.414.633 1.414 1.414v42.398c0 .78-.633 1.413-1.415 1.413H121.45c-.78 0-1.413-.633-1.413-1.413V76.273c0-.781.633-1.414 1.413-1.414zm9.683 42.4h15.304V77.686h-15.304v39.571zm18.132 0h5.443V77.686h-5.443v39.571zm-26.401 0h5.442V77.686h-5.442v39.571zm59.44 23.958h32.836v-2.621h-32.837v2.621zm0-5.447h32.836v-2.495h-32.837v2.495zm0-5.323h32.836v-2.496h-32.837v2.496zm-52.585 0h18.131c.782 0 1.415.633 1.415 1.413v10.77c0 .78-.633 1.413-1.415 1.413h-18.13c-.78 0-1.414-.633-1.414-1.413v-10.77c0-.78.633-1.413 1.413-1.413zm1.414 10.77h15.304v-7.944h-15.304v7.944z"/>
        <path fill="#3DCA59" d="M53.522 64.373c16.424 0 29.737 13.314 29.737 29.736 0 16.423-13.313 29.736-29.737 29.736-16.423 0-29.737-13.313-29.737-29.736 0-16.422 13.314-29.736 29.737-29.736"/>
        <path fill="#B8E986" d="M50.34 67.487c12.576 0 22.773 10.195 22.773 22.773s-10.197 22.773-22.773 22.773c-12.578 0-22.775-10.195-22.775-22.773S37.762 67.487 50.34 67.487"/>
        <path fill="#425563" d="M52.11 94.11a1.413 1.413 0 1 1 2.826 0v7.826l3.894-3.894a1.412 1.412 0 1 1 1.999 1.998l-5.893 5.892v16.466a28.227 28.227 0 0 0 18.615-8.261c5.125-5.126 8.295-12.206 8.295-20.028 0-7.822-3.17-14.902-8.295-20.027a28.237 28.237 0 0 0-20.03-8.296c-7.82 0-14.902 3.17-20.027 8.296-5.125 5.125-8.296 12.205-8.296 20.027 0 7.822 3.17 14.902 8.296 20.028a28.23 28.23 0 0 0 18.616 8.26v-7.1l-10.76-10.759a1.415 1.415 0 0 1 0-1.999 1.415 1.415 0 0 1 1.998 0l8.762 8.762V94.109zm2.826 31.117v22.6a1.414 1.414 0 0 1-2.826 0v-22.6c-8.04-.358-15.287-3.764-20.613-9.092-5.639-5.636-9.125-13.424-9.125-22.026s3.486-16.39 9.125-22.026c5.635-5.637 13.424-9.125 22.025-9.125 8.602 0 16.39 3.488 22.027 9.125 5.637 5.637 9.124 13.424 9.124 22.026s-3.487 16.39-9.124 22.026c-5.327 5.328-12.574 8.734-20.613 9.092z"/>
        <path fill="#425563" d="M.798 149.24c-.44 0-.798-.633-.798-1.413 0-.782.358-1.414.798-1.414H388.88c.44 0 .796.632.796 1.414 0 .78-.357 1.413-.796 1.413H.798"/>
    </g>
</svg>
