<svg xmlns="http://www.w3.org/2000/svg" width="33" height="33" viewBox="0 0 33 33">
    <g fill="#B1BBC2" fill-rule="nonzero">
        <path d="M7.589 16.826c4.214 0 7.333-.624 7.333-2s-3.119-2-7.333-2c-4.215 0-7.334.624-7.334 2s3.12 2 7.334 2zm-4.584-2.289c1.196-.24 2.833-.378 4.584-.378 1.75 0 3.387.139 4.583.378a7.1 7.1 0 0 1 1.075.29 7.1 7.1 0 0 1-1.075.288c-1.196.24-2.832.378-4.583.378-1.751 0-3.388-.139-4.584-.378a7.1 7.1 0 0 1-1.075-.289 7.1 7.1 0 0 1 1.075-.289z"/>
        <path d="M13.583 14.826v4c0-.155-.008-.146-.142-.083-.278.131-.715.26-1.274.373-1.195.238-2.832.377-4.584.377-1.751 0-3.388-.139-4.583-.377-.56-.112-.997-.242-1.274-.373-.134-.063-.143-.072-.143.083v-4a.667.667 0 0 0-1.333 0v4c0 1.377 3.117 2 7.333 2 4.217 0 7.334-.623 7.334-2v-4a.667.667 0 0 0-1.334 0z"/>
        <path d="M13.583 18.826v4c0-.155-.008-.146-.142-.083-.278.131-.715.26-1.274.373-1.195.238-2.832.377-4.584.377-1.751 0-3.388-.139-4.583-.377-.56-.112-.997-.242-1.274-.373-.134-.063-.143-.072-.143.083v-4a.667.667 0 0 0-1.333 0v4c0 1.377 3.117 2 7.333 2 4.217 0 7.334-.623 7.334-2v-4a.667.667 0 0 0-1.334 0z"/>
        <path d="M13.583 22.826v4c0-.155-.008-.146-.142-.083-.278.131-.715.26-1.274.373-1.195.238-2.832.377-4.584.377-1.751 0-3.388-.139-4.583-.377-.56-.112-.997-.242-1.274-.373-.134-.063-.143-.072-.143.083v-4a.667.667 0 0 0-1.333 0v4c0 1.377 3.117 2 7.333 2 4.217 0 7.334-.623 7.334-2v-4a.667.667 0 0 0-1.334 0z"/>
        <path d="M13.583 26.826v4c0-.155-.008-.146-.142-.083-.278.131-.715.26-1.274.373-1.195.238-2.832.377-4.584.377-1.751 0-3.388-.139-4.583-.377-.56-.112-.997-.242-1.274-.373-.134-.063-.143-.072-.143.083v-4a.667.667 0 0 0-1.333 0v4c0 1.377 3.117 2 7.333 2 4.217 0 7.334-.623 7.334-2v-4a.667.667 0 0 0-1.334 0zM1.583 10.826v-8c0-.368.299-.667.667-.667h28c.368 0 .667.299.667.667v16a.667.667 0 0 1-.667.667H17.583a.667.667 0 1 0 0 1.333H30.25a2 2 0 0 0 2-2v-16a2 2 0 0 0-2-2h-28a2 2 0 0 0-2 2v8a.667.667 0 0 0 1.333 0z"/>
        <path d="M12.917 10.826a3.333 3.333 0 1 1 4.444 3.144.667.667 0 1 0 .445 1.257 4.667 4.667 0 1 0-6.223-4.401.667.667 0 0 0 1.334 0zM5.917 7.493a1 1 0 1 0 2 0 1 1 0 0 0-2 0zM24.583 14.16a1 1 0 1 0 2 0 1 1 0 0 0-2 0z"/>
        <path d="M4.25 10.826v-6h24v12H17.583a.667.667 0 0 0 0 1.333H28.25c.736 0 1.333-.597 1.333-1.333v-12c0-.736-.597-1.333-1.333-1.333h-24c-.736 0-1.333.597-1.333 1.333v6a.667.667 0 0 0 1.333 0z"/>
    </g>
</svg>
