<svg xmlns="http://www.w3.org/2000/svg" width="34" height="34" viewBox="0 0 34 34">
    <g fill="#B1BBC2" fill-rule="nonzero">
        <path d="M27.625 9.917H6.375A6.375 6.375 0 0 0 0 16.292V31.05A2.956 2.956 0 0 0 3.03 34c1.992-.027 2.15-.066 2.888-1.087.388-.535 3.012-5.264 4.066-7.067a3.552 3.552 0 0 1 3.064-1.763h7.903c1.257 0 2.42.666 3.055 1.75 1.108 1.9 3.631 6.49 4.006 7.017.751 1.056 1.066 1.143 2.954 1.15a3.01 3.01 0 0 0 3.033-3L34 16.291a6.375 6.375 0 0 0-6.375-6.375zm4.957 21.08a1.594 1.594 0 0 1-1.608 1.586c-1.468-.005-1.405.012-1.808-.554-.319-.449-2.786-4.939-3.937-6.911a4.96 4.96 0 0 0-4.278-2.451h-7.904a4.969 4.969 0 0 0-4.286 2.465c-1.101 1.883-3.661 6.496-3.99 6.95-.378.522-.206.48-1.769.501a1.538 1.538 0 0 1-1.586-1.534V16.292a4.958 4.958 0 0 1 4.959-4.959h21.25a4.958 4.958 0 0 1 4.958 4.959l-.001 14.705z"/>
        <path d="M7.083 14.874v5.666a.708.708 0 0 0 1.417 0v-5.666a.708.708 0 0 0-1.417 0z"/>
        <path d="M10.625 16.999H4.96a.708.708 0 0 0 0 1.416h5.665a.708.708 0 1 0 0-1.416zM14.167 21.249h1.416a.708.708 0 1 0 0-1.417h-1.416a.708.708 0 1 0 0 1.417zM18.417 21.249h1.416a.708.708 0 1 0 0-1.417h-1.416a.708.708 0 1 0 0 1.417zM20.542 9.208a2.125 2.125 0 0 0-2.125-2.125h-2.834a2.125 2.125 0 0 0-2.125 2.125v1.417c0 .391.317.708.709.708h5.666a.708.708 0 0 0 .709-.708V9.208zm-1.417.709h-4.25v-.709c0-.39.317-.708.708-.708h2.834c.39 0 .708.317.708.708v.709z"/>
        <path d="M17.708 7.792V4.25A4.26 4.26 0 0 0 13.46 0H7.083a.708.708 0 0 0 0 1.417h6.375a2.843 2.843 0 0 1 2.834 2.835v3.54a.708.708 0 1 0 1.416 0zM26.563 15.582a.708.708 0 0 0 .708-.708c0-.587-.476-1.063-1.063-1.063a.708.708 0 0 0-.291 1.354.708.708 0 0 0 .645.417z"/>
        <path d="M26.917 14.52a.708.708 0 0 0-.709-.707c-.586 0-1.062.475-1.062 1.062a.708.708 0 0 0 1.354.292.708.708 0 0 0 .417-.646z"/>
        <path d="M25.854 14.165a.708.708 0 0 0-.708.709c0 .586.476 1.062 1.062 1.062a.708.708 0 0 0 .292-1.354.708.708 0 0 0-.646-.417z"/>
        <path d="M25.5 15.23c0 .39.317.707.708.707.587 0 1.063-.475 1.063-1.062a.708.708 0 0 0-1.354-.292.708.708 0 0 0-.417.646zM23.73 18.415a.708.708 0 0 0 .707-.708c0-.587-.475-1.063-1.062-1.063a.708.708 0 0 0-.292 1.354.708.708 0 0 0 .646.417z"/>
        <path d="M24.083 17.354a.708.708 0 0 0-.708-.708c-.587 0-1.063.476-1.063 1.062a.708.708 0 0 0 1.355.292.708.708 0 0 0 .416-.646z"/>
        <path d="M23.02 16.999a.708.708 0 0 0-.707.708c0 .587.475 1.062 1.062 1.062a.708.708 0 0 0 .292-1.354.708.708 0 0 0-.646-.416z"/>
        <path d="M22.667 18.063c0 .39.317.708.708.708.587 0 1.063-.476 1.063-1.063a.708.708 0 0 0-1.355-.291.708.708 0 0 0-.416.645zM26.563 21.249a.708.708 0 0 0 .708-.709c0-.587-.476-1.062-1.063-1.062a.708.708 0 0 0-.291 1.354.708.708 0 0 0 .645.417z"/>
        <path d="M26.917 20.188a.708.708 0 0 0-.709-.709c-.586 0-1.062.476-1.062 1.063a.708.708 0 0 0 1.354.291.708.708 0 0 0 .417-.645z"/>
        <path d="M25.854 19.832a.708.708 0 0 0-.708.708c0 .587.476 1.063 1.062 1.063a.708.708 0 0 0 .292-1.354.708.708 0 0 0-.646-.417z"/>
        <path d="M25.5 20.896c0 .391.317.708.708.708.587 0 1.063-.476 1.063-1.062a.708.708 0 0 0-1.354-.292.708.708 0 0 0-.417.646zM29.396 18.415a.708.708 0 0 0 .708-.708c0-.587-.476-1.063-1.062-1.063a.708.708 0 0 0-.292 1.354.708.708 0 0 0 .646.417z"/>
        <path d="M29.749 17.354a.708.708 0 0 0-.709-.708c-.587 0-1.062.476-1.062 1.062a.708.708 0 0 0 1.354.292.708.708 0 0 0 .417-.646z"/>
        <path d="M28.688 16.999a.708.708 0 0 0-.709.708c0 .587.476 1.062 1.063 1.062a.708.708 0 0 0 .291-1.354.708.708 0 0 0-.645-.416z"/>
        <path d="M28.332 18.063c0 .39.317.708.708.708.587 0 1.063-.476 1.063-1.063a.708.708 0 0 0-1.354-.291.708.708 0 0 0-.417.645z"/>
    </g>
</svg>
