<svg xmlns="http://www.w3.org/2000/svg" width="34" height="21" viewBox="0 0 34 21">
    <g fill="#B1BBC2" fill-rule="nonzero">
        <path d="M4.38 2.889h24.75c.76 0 1.376.615 1.376 1.375v12.375c0 .759-.616 1.375-1.375 1.375H4.38c-.76 0-1.376-.616-1.376-1.375V4.264c0-.76.616-1.375 1.375-1.375zm0 1.375v12.375h24.75V4.264H4.38z"/>
        <path d="M2.318.139h28.875c1.14 0 2.062.923 2.062 2.062v16.5c0 1.14-.923 2.063-2.062 2.063H2.318A2.062 2.062 0 0 1 .255 18.7v-16.5C.256 1.062 1.18.14 2.319.14zm0 1.375a.687.687 0 0 0-.688.687v16.5c0 .38.308.688.688.688h28.875c.38 0 .688-.308.688-.688v-16.5a.687.687 0 0 0-.688-.687H2.318z"/>
        <path d="M16.756 15.264a4.812 4.812 0 1 0 0-9.625 4.812 4.812 0 0 0 0 9.625zm0-1.375a3.438 3.438 0 1 1 0-6.875 3.438 3.438 0 0 1 0 6.875zM6.094 7.014a1.031 1.031 0 1 0 2.062 0 1.031 1.031 0 0 0-2.062 0zM25.344 13.889a1.031 1.031 0 1 0 2.062 0 1.031 1.031 0 0 0-2.062 0z"/>
    </g>
</svg>
