<svg xmlns="http://www.w3.org/2000/svg" width="34" height="35" viewBox="0 0 34 35">
    <g fill="#B1BBC2" fill-rule="nonzero">
        <path d="M4.246 33.688l.3-3c.7-7.052 2.444-12.27 5.871-15.694l1.418-1.425a.708.708 0 1 0-1.004-1l-1.416 1.424C5.704 17.701 3.866 23.2 3.137 30.547l-.3 3a.708.708 0 1 0 1.41.141zM13.103 13.042l-1.028 2.4a30.725 30.725 0 0 0-2.423 14.015l.266 4.206a.708.708 0 1 0 1.414-.09l-.266-4.205A29.307 29.307 0 0 1 13.377 16l1.028-2.4a.708.708 0 1 0-1.302-.558z"/>
        <path d="M20.134 14.86c1.76 1.611 2.536 3.977 2.084 6.27l-8.265-8.625c1.809-.503 4.284.38 6.181 2.355zm-7.77-2.99a.708.708 0 0 0-.022 1l8.857 9.243a1.416 1.416 0 0 0 2.371-.544c.607-2.88-.331-5.787-2.447-7.722-2.337-2.436-5.564-3.49-7.979-2.566a.706.706 0 0 0-.405.4.705.705 0 0 0-.376.188z"/>
        <path d="M14.075 11.667c-1.686-2.314-5.495-2.79-8.985-1.2-2.638.995-4.585 3.347-5.08 6.17-.042.572.188 1.051.598 1.335.41.284.94.332 1.394.125l11.794-5.368a.708.708 0 0 0 .279-1.062zm-12.66 5.14c.4-2.255 2.006-4.197 4.219-5.033 2.553-1.161 5.182-1.044 6.66.082L1.414 16.807z"/>
        <path d="M26.053 4.856a1.417 1.417 0 0 0-.646-1.24c-2.624-1.331-5.675-1.179-8.092.363-3.317 1.819-5.213 5.156-4.37 7.889a.708.708 0 0 0 1.017.412L25.32 6.047c.438-.24.716-.692.734-1.19zm-11.89 5.698c-.018-1.856 1.455-4.03 3.873-5.357 2.013-1.282 4.5-1.42 6.597-.39l-10.47 5.747z"/>
        <path d="M2.732 3.056c-.375-.33-.549-.83-.459-1.32.09-.49.43-.897.97-1.094C6.02-.07 8.967.737 10.96 2.733c2.88 2.524 4.012 6.192 2.598 8.675a.708.708 0 0 1-1.082.182L2.732 3.056zm7.26.71C8.32 2.093 5.887 1.426 3.666 1.991l8.987 7.871c.417-1.806-.557-4.25-2.66-6.096zM3.977 30.078h6.379a.708.708 0 0 0 0-1.417h-6.38a.708.708 0 1 0 0 1.417zM5.043 24.41h5.503a.708.708 0 1 0 0-1.416H5.043a.708.708 0 0 0 0 1.417zM7.262 18.744h4.584a.708.708 0 1 0 0-1.416H7.262a.708.708 0 1 0 0 1.416zM14.197 23.905l1.973 6.577c.179.6.73 1.01 1.357 1.01h15.765a.708.708 0 0 0 0-1.416H17.527l-1.974-6.578a.708.708 0 0 0-1.356.407z"/>
        <path d="M18.487 30.47l-1.416 2.832a.708.708 0 0 0 1.267.634l1.416-2.833a.708.708 0 0 0-1.267-.634zM29.82 31.103l1.417 2.833a.708.708 0 1 0 1.267-.634l-1.416-2.833a.708.708 0 0 0-1.267.634zM15.72 27.244h5.526a.708.708 0 1 0 0-1.416H15.72a.708.708 0 1 0 0 1.416z"/>
    </g>
</svg>
